<svg width="16" height="16" viewBox="0 0 16 16" fill="none" xmlns="http://www.w3.org/2000/svg">
<g id="mdi:account">
<path id="Vector" d="M7.99984 2.66669C8.70708 2.66669 9.38536 2.94764 9.88546 3.44774C10.3856 3.94783 10.6665 4.62611 10.6665 5.33335C10.6665 6.0406 10.3856 6.71887 9.88546 7.21897C9.38536 7.71907 8.70708 8.00002 7.99984 8.00002C7.29259 8.00002 6.61432 7.71907 6.11422 7.21897C5.61412 6.71887 5.33317 6.0406 5.33317 5.33335C5.33317 4.62611 5.61412 3.94783 6.11422 3.44774C6.61432 2.94764 7.29259 2.66669 7.99984 2.66669ZM7.99984 9.33335C10.9465 9.33335 13.3332 10.5267 13.3332 12V13.3334H2.6665V12C2.6665 10.5267 5.05317 9.33335 7.99984 9.33335Z" fill="#212121"/>
</g>
</svg>
