<svg width="16" height="16" viewBox="0 0 16 16" fill="none" xmlns="http://www.w3.org/2000/svg">
<g id="mdi:password">
<path id="Vector" d="M7.99984 11.3334C8.35346 11.3334 8.6926 11.1929 8.94265 10.9428C9.19269 10.6928 9.33317 10.3536 9.33317 10C9.33317 9.6464 9.19269 9.30726 8.94265 9.05721C8.6926 8.80716 8.35346 8.66669 7.99984 8.66669C7.64622 8.66669 7.30708 8.80716 7.05703 9.05721C6.80698 9.30726 6.6665 9.6464 6.6665 10C6.6665 10.3536 6.80698 10.6928 7.05703 10.9428C7.30708 11.1929 7.64622 11.3334 7.99984 11.3334ZM11.9998 5.33335C12.3535 5.33335 12.6926 5.47383 12.9426 5.72388C13.1927 5.97393 13.3332 6.31307 13.3332 6.66669V13.3334C13.3332 13.687 13.1927 14.0261 12.9426 14.2762C12.6926 14.5262 12.3535 14.6667 11.9998 14.6667H3.99984C3.64622 14.6667 3.30708 14.5262 3.05703 14.2762C2.80698 14.0261 2.6665 13.687 2.6665 13.3334V6.66669C2.6665 6.31307 2.80698 5.97393 3.05703 5.72388C3.30708 5.47383 3.64622 5.33335 3.99984 5.33335H4.6665V4.00002C4.6665 3.11597 5.01769 2.26812 5.64281 1.643C6.26794 1.01788 7.11578 0.666687 7.99984 0.666687C8.43758 0.666687 8.87103 0.752906 9.27545 0.920422C9.67987 1.08794 10.0473 1.33347 10.3569 1.643C10.6664 1.95253 10.9119 2.31999 11.0794 2.72441C11.247 3.12883 11.3332 3.56228 11.3332 4.00002V5.33335H11.9998ZM7.99984 2.00002C7.4694 2.00002 6.9607 2.21073 6.58562 2.58581C6.21055 2.96088 5.99984 3.46959 5.99984 4.00002V5.33335H9.99984V4.00002C9.99984 3.46959 9.78912 2.96088 9.41405 2.58581C9.03898 2.21073 8.53027 2.00002 7.99984 2.00002Z" fill="#1E1E1E"/>
</g>
</svg>
