<svg width="16" height="16" viewBox="0 0 16 16" fill="none" xmlns="http://www.w3.org/2000/svg">
<g id="mdi:email">
<path id="Vector" d="M13.3335 5.33335L8.00016 8.66669L2.66683 5.33335V4.00002L8.00016 7.33335L13.3335 4.00002M13.3335 2.66669H2.66683C1.92683 2.66669 1.3335 3.26002 1.3335 4.00002V12C1.3335 12.3536 1.47397 12.6928 1.72402 12.9428C1.97407 13.1929 2.31321 13.3334 2.66683 13.3334H13.3335C13.6871 13.3334 14.0263 13.1929 14.2763 12.9428C14.5264 12.6928 14.6668 12.3536 14.6668 12V4.00002C14.6668 3.6464 14.5264 3.30726 14.2763 3.05721C14.0263 2.80716 13.6871 2.66669 13.3335 2.66669Z" fill="#1E1E1E"/>
</g>
</svg>
