<svg width="202" height="40" viewBox="0 0 202 40" fill="none" xmlns="http://www.w3.org/2000/svg">
<path fill-rule="evenodd" clip-rule="evenodd" d="M18.076 0.126927C18.2825 0.232905 18.4545 0.389788 18.5735 0.580763C18.6926 0.771737 18.7541 0.989602 18.7517 1.21101V11.5178C18.7517 11.7038 18.7065 11.8874 18.6196 12.0545C18.5327 12.2216 18.4063 12.3678 18.2502 12.4818L14.6635 15.094C16.3506 16.2001 18.7517 17.7662 18.7517 20.0004C18.7517 22.3666 16.5631 24.0367 14.5997 25.0728L18.212 27.4849C18.5519 27.719 18.7517 28.085 18.7517 28.485V38.7918C18.7517 39.2398 18.5009 39.6518 18.0887 39.8618C17.8882 39.9633 17.6617 40.0104 17.4344 39.9981C17.2071 39.9857 16.9879 39.9143 16.8011 39.7918L3.05126 30.7092C2.13458 30.1271 1.37924 29.3469 0.848406 28.4338C0.317571 27.5208 0.0266621 26.5013 0 25.4608C0 23.9667 0.701196 22.1665 3.03851 20.0484C1.25153 18.6123 0 16.8722 0 14.542C0 11.7538 3.43798 9.3636 5.55007 8.08151L16.7628 0.232935C16.9497 0.102249 17.1715 0.0231115 17.4034 0.00438854C17.6353 -0.0143345 17.8682 0.028096 18.076 0.126927ZM5.30146 11.2237C4.38778 11.9298 2.50093 13.2599 2.50093 14.542C2.50093 16.3301 3.65046 17.4362 4.99973 18.4823L8.75007 16.1661L11.251 17.5782L7.10119 19.9904L12.2497 23.4846C13.6266 22.9306 16.2507 21.7185 16.2507 20.0004C16.2507 18.1783 13.1761 17.0482 11.8141 16.1661C9.651 14.754 6.70173 13.4359 5.31208 11.2237H5.30146ZM5.05073 21.5425C2.77716 23.4946 2.50093 24.8027 2.50093 25.4608C2.50093 26.3209 2.96414 27.731 4.43878 28.697H4.45153L5.51394 29.4031C5.85346 28.5319 6.38545 27.7384 7.07478 27.0751C7.76412 26.4117 8.59511 25.8935 9.51288 25.5548L11.3615 27.2729C9.86348 27.909 8.31235 29.1911 8.0255 29.8031C7.85829 30.1498 7.78109 30.5289 7.80027 30.9092L16.2507 36.4976V29.1191C12.5044 26.6106 8.77103 24.0851 5.05073 21.5425ZM7.3498 9.81164C8.19973 11.5298 10.8876 12.6598 12.4622 13.6719L16.2507 10.9057V3.58718L7.3498 9.82364V9.81164ZM21.9134 0.138928C22.1115 0.0384155 22.335 -0.00913004 22.5598 0.00144767C22.7845 0.0120254 23.0019 0.0803225 23.1883 0.198932L36.3134 8.69356C38.502 10.0937 40 11.9178 40 14.542C40 16.6941 38.5636 18.5063 36.9997 19.9064C38.3745 20.9665 40 22.7306 40 25.4608C40 28.873 37.3631 30.5092 35.625 31.5792L35.0619 31.9193C34.1121 32.5433 26.7517 37.4037 23.2138 39.7918C23.027 39.9143 22.8078 39.9857 22.5805 39.9981C22.3532 40.0104 22.1267 39.9633 21.9262 39.8618C21.7219 39.757 21.5513 39.6023 21.4324 39.414C21.3135 39.2257 21.2507 39.0108 21.2505 38.7918V28.485C21.2505 28.109 21.4374 27.745 21.7498 27.5189L25.2621 24.9668C23.3137 23.8267 21.2505 22.5186 21.2505 20.0004C21.2505 17.7902 23.6622 16.0721 25.3131 14.906L21.788 12.5058C21.6218 12.3929 21.4864 12.2444 21.393 12.0727C21.2995 11.9009 21.2507 11.7107 21.2505 11.5178V1.21101C21.2467 0.994011 21.3066 0.780249 21.4236 0.593225C21.5406 0.406201 21.71 0.253159 21.9134 0.150929V0.138928ZM27.489 16.3781C26.5264 17.0362 23.7493 18.5883 23.7493 20.0004C23.7493 21.9545 26.8005 23.0366 28.1392 23.8127L28.188 23.8367C30.5381 25.3568 33.4746 26.6489 35.013 29.0491C36.4622 28.097 37.4991 27.2029 37.4991 25.4608C37.4991 23.5426 36.2135 22.3306 35.0258 21.4965L31.2499 24.2487L28.7511 23.0366L32.8754 20.0364L27.4996 16.3881L27.489 16.3781ZM34.9259 18.4723L23.7493 10.8817V3.46917L31.813 8.68156C33.1262 9.52962 29.2632 12.3298 28.7511 12.7299L31.2499 13.9419C32.6523 12.8479 33.6999 12.1058 34.3373 10.3177L34.9386 10.7057C36.4005 11.6458 37.5012 12.7419 37.5012 14.542C37.5012 16.1421 36.0754 17.4822 34.9259 18.4723ZM32.9243 30.3911C31.8003 28.509 29.3376 27.4969 27.5506 26.3309L23.7514 29.0971V36.4736L32.937 30.3911H32.9243Z" fill="#FF6F00"/>
<path d="M63.172 12.304C63.4333 12.304 63.7507 12.4813 64.124 12.836C64.516 13.172 64.712 13.4613 64.712 13.704C64.712 14.8427 64.6747 16.4013 64.6 18.38C64.5813 18.8653 64.5627 19.4533 64.544 20.144C64.5253 20.816 64.516 21.6 64.516 22.496C64.516 25.3333 64.684 27.424 65.02 28.768C65.0013 29.216 64.824 29.5427 64.488 29.748C64.152 29.9347 63.816 30.028 63.48 30.028C62.7333 30.028 62.2387 29.7667 61.996 29.244C61.772 28.7213 61.66 27.9747 61.66 27.004C61.66 23.4013 61.6973 20.088 61.772 17.064C59.6253 19.4533 57.9547 21.46 56.76 23.084C56.76 23.084 56.592 23.196 56.256 23.42C55.9387 23.7 55.6773 23.84 55.472 23.84C54.9867 23.84 54.5853 23.7187 54.268 23.476C53.9507 23.2333 53.6427 22.8787 53.344 22.412L52 20.508C51.0667 19.2013 50.3853 18.212 49.956 17.54C49.956 19.2573 50.04 21.5907 50.208 24.54C50.3387 26.2387 50.404 27.5173 50.404 28.376C50.404 28.824 50.292 29.2067 50.068 29.524C49.844 29.8227 49.4893 29.972 49.004 29.972C48.5187 29.972 48.1173 29.8787 47.8 29.692C47.5013 29.5053 47.3427 29.2253 47.324 28.852C47.3427 28.5347 47.352 28.012 47.352 27.284C47.352 25.828 47.3053 24.0547 47.212 21.964L47.156 20.452L47.1 18.492C47.0813 17.9133 47.0627 17.2413 47.044 16.476C47.0253 15.692 47.016 14.8427 47.016 13.928C47.016 12.808 47.6227 12.248 48.836 12.248C49.2093 12.248 49.5827 12.3413 49.956 12.528C50.348 12.7147 50.6373 12.9853 50.824 13.34C50.9733 13.9933 51.524 15.076 52.476 16.588C53.428 18.1 54.3613 19.5187 55.276 20.844C56.0973 19.7987 56.7693 19.0147 57.292 18.492C58.188 17.5773 58.9253 16.728 59.504 15.944C60.1013 15.16 60.7453 14.2173 61.436 13.116C61.604 12.892 61.8467 12.7053 62.164 12.556C62.4813 12.388 62.8173 12.304 63.172 12.304ZM69.9237 12.024C70.5771 12.08 71.1464 12.2573 71.6317 12.556C72.1171 12.836 72.3597 13.2653 72.3597 13.844C72.3597 14.2733 72.1544 14.6187 71.7437 14.88C71.3517 15.1227 70.8757 15.244 70.3157 15.244C69.7744 15.244 69.4011 15.104 69.1957 14.824C68.9904 14.544 68.8877 14.2547 68.8877 13.956C68.8877 13.396 68.9437 12.9293 69.0557 12.556C69.1864 12.1827 69.4757 12.0053 69.9237 12.024ZM72.1637 24.428V25.24C72.1637 25.968 72.1824 26.6587 72.2197 27.312C72.2757 27.9467 72.3411 28.5907 72.4157 29.244C72.3971 29.4307 72.2571 29.6267 71.9957 29.832C71.7344 30.0187 71.5011 30.112 71.2957 30.112C70.9411 30.112 70.5771 30.0467 70.2037 29.916C69.8491 29.7667 69.6344 29.5893 69.5597 29.384C69.4477 28.7867 69.3917 28.2547 69.3917 27.788C69.3917 26.2573 69.3451 24.54 69.2517 22.636C69.1771 20.956 69.1397 19.78 69.1397 19.108C69.1397 18.772 69.3077 18.4827 69.6437 18.24C69.9797 17.9973 70.3344 17.876 70.7077 17.876C71.2491 17.876 71.6224 17.9973 71.8277 18.24C72.0517 18.4827 72.1637 18.8653 72.1637 19.388V24.428ZM88.4278 27.844C88.5211 27.8813 88.6704 27.928 88.8758 27.984C89.0811 28.04 89.2304 28.096 89.3238 28.152C89.4171 28.208 89.4638 28.292 89.4638 28.404C89.4824 28.852 89.3144 29.2253 88.9598 29.524C88.6238 29.804 88.2224 29.944 87.7558 29.944C87.0278 29.944 86.4584 29.748 86.0478 29.356C85.6371 28.964 85.3384 28.3667 85.1518 27.564C85.0771 27.2467 85.0398 26.808 85.0398 26.248C85.0398 25.9307 85.0584 25.4173 85.0958 24.708C85.1331 23.9613 85.1518 23.364 85.1518 22.916C85.1518 22.2627 84.9651 21.6933 84.5918 21.208C84.2371 20.704 83.7331 20.452 83.0798 20.452C82.6878 20.452 82.2771 20.5733 81.8478 20.816C81.4184 21.04 81.1198 21.32 80.9518 21.656C80.6718 22.1973 80.4758 22.7853 80.3638 23.42C80.1584 24.54 80.0558 25.7067 80.0558 26.92C80.0558 27.4987 80.0651 27.9467 80.0838 28.264C80.0838 28.3387 80.0838 28.488 80.0838 28.712C80.1024 28.9173 80.0838 29.1133 80.0278 29.3C79.9904 29.468 79.9158 29.6267 79.8038 29.776C79.7104 29.8693 79.5611 29.944 79.3558 30C79.1691 30.0747 78.9918 30.112 78.8238 30.112C78.5624 30.112 78.2358 30 77.8438 29.776C77.4518 29.552 77.2278 29.3 77.1718 29.02L77.1438 28.544C77.1438 28.376 77.1624 28.18 77.1998 27.956C77.4238 26.6493 77.5358 25.5107 77.5358 24.54C77.5358 24.1107 77.5264 23.7747 77.5078 23.532L77.4798 22.216C77.4798 21.768 77.3678 21.3387 77.1438 20.928C76.9198 20.4987 76.6584 20.284 76.3598 20.284C76.2664 20.284 76.1358 20.3213 75.9678 20.396C75.7998 20.452 75.6598 20.48 75.5478 20.48C75.3611 20.48 75.1558 20.3867 74.9318 20.2C74.7264 20.0133 74.6238 19.8173 74.6238 19.612C74.6238 19.22 74.7544 18.9027 75.0158 18.66C75.2958 18.436 75.5664 18.2587 75.8278 18.128C76.1078 17.9973 76.4251 17.932 76.7798 17.932C77.0784 17.932 77.3211 17.96 77.5078 18.016C77.6944 18.072 77.9464 18.1933 78.2638 18.38C78.4318 18.4733 78.6278 18.6787 78.8518 18.996C79.0758 19.3133 79.2624 19.7613 79.4118 20.34C79.8971 19.444 80.4944 18.8187 81.2038 18.464C81.9318 18.0907 82.8558 17.904 83.9758 17.904C84.4051 17.904 84.8624 18.044 85.3478 18.324C85.8518 18.604 86.2811 18.9307 86.6358 19.304C86.9718 19.7147 87.2518 20.228 87.4758 20.844C87.6998 21.4413 87.8118 21.9827 87.8118 22.468C87.8118 22.748 87.7931 23.2053 87.7558 23.84C87.6998 24.344 87.6718 24.876 87.6718 25.436C87.6718 26.7427 87.9238 27.5453 88.4278 27.844ZM103.084 29.86C102.692 29.86 102.318 29.748 101.964 29.524C101.628 29.2813 101.329 29.0293 101.068 28.768C100.806 28.488 100.629 28.3013 100.536 28.208C100.144 28.768 99.5745 29.2253 98.8278 29.58C98.0811 29.9347 97.3625 30.112 96.6718 30.112C95.6078 30.112 94.6651 29.888 93.8438 29.44C93.0225 28.992 92.3878 28.3853 91.9398 27.62C91.4918 26.836 91.2678 25.968 91.2678 25.016C91.2678 24.12 91.3705 23.2613 91.5758 22.44C91.7998 21.6 92.0985 20.9 92.4718 20.34C92.9758 19.6307 93.6478 19.0707 94.4878 18.66C95.3465 18.2493 96.1958 18.044 97.0358 18.044C97.5398 18.044 98.0158 18.1373 98.4638 18.324C98.9118 18.5107 99.3038 18.744 99.6398 19.024C99.6398 17.792 99.6305 17.0173 99.6118 16.7V16.084C99.6118 14.3293 99.7238 13.0507 99.9478 12.248C100.153 11.464 100.657 11.072 101.46 11.072C101.889 11.072 102.206 11.1653 102.412 11.352C102.617 11.5387 102.72 11.8933 102.72 12.416C102.72 12.6027 102.673 13.116 102.58 13.956C102.374 16.0467 102.272 18.1373 102.272 20.228C102.272 21.9827 102.3 23.2893 102.356 24.148C102.43 24.988 102.57 25.66 102.776 26.164C103 26.668 103.345 27.116 103.812 27.508C104.092 27.732 104.288 27.9187 104.4 28.068C104.53 28.2173 104.596 28.4133 104.596 28.656C104.596 28.9547 104.446 29.2347 104.148 29.496C103.849 29.7387 103.494 29.86 103.084 29.86ZM96.5878 27.844C97.5771 27.844 98.3051 27.536 98.7718 26.92C99.2571 26.2853 99.4998 25.4827 99.4998 24.512L99.4718 22.944C99.4531 22.6453 99.4438 22.244 99.4438 21.74C98.7531 20.9187 98.0065 20.508 97.2038 20.508C96.6625 20.508 96.1491 20.648 95.6638 20.928C95.1971 21.208 94.8145 21.6187 94.5158 22.16C94.1985 22.776 94.0398 23.7093 94.0398 24.96C94.0398 25.8187 94.2918 26.5187 94.7958 27.06C95.2998 27.5827 95.8971 27.844 96.5878 27.844ZM119.58 25.184C119.58 26.0613 119.394 26.7707 119.02 27.312C118.647 27.8533 118.003 28.3853 117.088 28.908C116.472 29.2813 115.763 29.5707 114.96 29.776C114.158 29.9627 113.346 30.056 112.524 30.056C112.02 30.056 111.432 29.9627 110.76 29.776C110.107 29.5707 109.575 29.3747 109.164 29.188L108.688 28.768C107.848 28.0773 107.26 27.5267 106.924 27.116C106.607 26.6867 106.448 26.164 106.448 25.548C106.448 25.0627 106.56 24.6987 106.784 24.456C107.008 24.2133 107.372 24.092 107.876 24.092C108.138 24.092 108.38 24.176 108.604 24.344C108.828 24.512 109.024 24.7453 109.192 25.044C109.659 25.8653 110.21 26.472 110.844 26.864C111.498 27.2373 112.263 27.424 113.14 27.424C113.962 27.424 114.792 27.172 115.632 26.668C116.323 26.2387 116.668 25.8187 116.668 25.408C116.668 24.68 116.342 24.0733 115.688 23.588C115.054 23.1027 114.139 22.664 112.944 22.272C112.216 22.0107 111.124 21.5253 109.668 20.816C108.679 20.3307 107.942 19.7333 107.456 19.024C106.971 18.3147 106.728 17.568 106.728 16.784C106.728 16.0747 106.971 15.384 107.456 14.712C107.96 14.0213 108.567 13.508 109.276 13.172C109.65 12.9853 110.247 12.7893 111.068 12.584C111.89 12.36 112.506 12.248 112.916 12.248C113.682 12.248 114.344 12.3413 114.904 12.528C115.464 12.696 116.015 12.9387 116.556 13.256C117.378 13.7227 117.984 14.1427 118.376 14.516C118.768 14.8893 118.964 15.356 118.964 15.916C118.964 16.252 118.834 16.5507 118.572 16.812C118.33 17.0733 117.9 17.204 117.284 17.204C117.135 17.204 116.986 17.1387 116.836 17.008C116.687 16.8773 116.5 16.6813 116.276 16.42C115.978 16.028 115.688 15.7667 115.408 15.636C115.334 15.6173 115.026 15.496 114.484 15.272C113.962 15.048 113.308 14.936 112.524 14.936C111.778 14.936 111.115 15.1133 110.536 15.468C109.958 15.804 109.668 16.2987 109.668 16.952C109.668 17.6053 110.256 18.1373 111.432 18.548C112.683 19.0333 113.719 19.4533 114.54 19.808C115.38 20.1627 116.192 20.5827 116.976 21.068C117.872 21.6093 118.526 22.1787 118.936 22.776C119.366 23.3733 119.58 24.176 119.58 25.184ZM122.843 20.256C122.675 20.256 122.516 20.2747 122.367 20.312C122.218 20.3307 122.068 20.34 121.919 20.34C121.714 20.34 121.518 20.2467 121.331 20.06C121.163 19.8733 121.079 19.7053 121.079 19.556C121.079 19.0707 121.322 18.6973 121.807 18.436C122.292 18.156 122.787 18.016 123.291 18.016C123.72 18.016 124.159 18.1653 124.607 18.464C125.074 18.744 125.419 19.108 125.643 19.556C126.128 18.9773 126.726 18.5573 127.435 18.296C128.144 18.0347 128.882 17.904 129.647 17.904C130.506 17.904 131.299 18.1747 132.027 18.716C132.774 19.2573 133.362 19.948 133.791 20.788C134.22 21.6093 134.435 22.4307 134.435 23.252C134.435 24.0547 134.351 24.7733 134.183 25.408C134.015 26.024 133.716 26.6493 133.287 27.284C132.802 27.956 132.148 28.5067 131.327 28.936C130.524 29.3653 129.563 29.58 128.443 29.58C128.144 29.58 127.78 29.5053 127.351 29.356C126.922 29.188 126.567 29.0107 126.287 28.824C126.156 30.0933 126.091 31.1947 126.091 32.128C126.091 32.688 126.119 33.22 126.175 33.724C126.212 34.3213 126.231 34.7507 126.231 35.012C126.231 35.4227 126.091 35.7213 125.811 35.908C125.531 36.1133 125.223 36.216 124.887 36.216C124.215 36.216 123.767 36.0293 123.543 35.656C123.338 35.3013 123.235 34.788 123.235 34.116C123.31 32.5107 123.403 31.0267 123.515 29.664C123.627 27.984 123.683 25.3893 123.683 21.88C123.683 21.544 123.618 21.1893 123.487 20.816C123.356 20.4427 123.142 20.256 122.843 20.256ZM126.399 26.052C126.492 26.4067 126.754 26.7053 127.183 26.948C127.631 27.172 128.032 27.284 128.387 27.284C129.451 27.284 130.244 26.9947 130.767 26.416C131.159 26.0053 131.411 25.604 131.523 25.212C131.654 24.82 131.719 24.1947 131.719 23.336C131.719 22.664 131.588 22.104 131.327 21.656C131.066 21.1893 130.748 20.8533 130.375 20.648C130.002 20.424 129.647 20.312 129.311 20.312C128.546 20.312 127.92 20.5453 127.435 21.012C126.968 21.46 126.67 22.076 126.539 22.86C126.446 23.476 126.399 24.54 126.399 26.052ZM147.659 30.112C147.024 30.112 146.539 30.0187 146.203 29.832C145.867 29.6267 145.503 29.2533 145.111 28.712C144.626 29.1413 143.898 29.4867 142.927 29.748C141.975 30.0093 141.154 30.14 140.463 30.14C139.324 30.14 138.4 29.832 137.691 29.216C137 28.5813 136.655 27.6573 136.655 26.444C136.655 25.9213 136.795 25.4453 137.075 25.016C137.374 24.568 137.756 24.176 138.223 23.84C138.746 23.4853 139.362 23.2053 140.071 23C140.799 22.7947 141.462 22.692 142.059 22.692C143.067 22.692 143.963 22.7853 144.747 22.972V22.944C144.747 21.936 144.495 21.2453 143.991 20.872C143.506 20.48 142.722 20.284 141.639 20.284C140.948 20.284 140.351 20.592 139.847 21.208C139.66 21.4507 139.268 21.572 138.671 21.572C138.372 21.572 138.148 21.4507 137.999 21.208C137.868 20.9467 137.803 20.6853 137.803 20.424C137.803 19.8827 138.027 19.416 138.475 19.024C138.942 18.632 139.502 18.3427 140.155 18.156C140.808 17.9507 141.415 17.848 141.975 17.848C142.516 17.848 143.16 17.96 143.907 18.184C144.654 18.408 145.26 18.7067 145.727 19.08C146.287 19.5653 146.716 20.1347 147.015 20.788C147.332 21.4227 147.491 22.1227 147.491 22.888C147.491 23.1307 147.472 23.4947 147.435 23.98C147.398 24.54 147.379 24.9973 147.379 25.352C147.379 25.52 147.36 25.7347 147.323 25.996C147.286 26.332 147.267 26.612 147.267 26.836C147.267 27.0787 147.342 27.312 147.491 27.536C147.64 27.76 147.846 27.9467 148.107 28.096C148.35 28.2267 148.508 28.3667 148.583 28.516C148.658 28.6653 148.695 28.8333 148.695 29.02C148.695 29.2067 148.574 29.44 148.331 29.72C148.107 29.9813 147.883 30.112 147.659 30.112ZM142.059 24.764C141.331 24.764 140.687 24.904 140.127 25.184C139.567 25.464 139.287 25.9587 139.287 26.668C139.287 27.0227 139.408 27.3213 139.651 27.564C139.912 27.8067 140.192 27.928 140.491 27.928C141.294 27.928 141.966 27.844 142.507 27.676C143.048 27.508 143.702 27.2 144.467 26.752C144.56 26.4533 144.616 26.0333 144.635 25.492C144.635 25.2867 144.644 25.128 144.663 25.016C143.655 24.848 142.787 24.764 142.059 24.764ZM154.944 28.88C154.944 29.1973 154.823 29.4773 154.58 29.72C154.338 29.9627 154.039 30.084 153.684 30.084C153.124 30.084 152.714 29.9813 152.452 29.776C152.191 29.552 152.06 29.1507 152.06 28.572C152.06 27.8813 152.042 26.976 152.004 25.856C151.967 24.9227 151.948 24.1387 151.948 23.504C151.948 23.2053 151.967 22.8133 152.004 22.328C152.042 21.88 152.06 21.544 152.06 21.32C152.004 20.9653 151.864 20.676 151.64 20.452C151.416 20.2093 151.127 20.088 150.772 20.088C150.604 20.088 150.464 20.0133 150.352 19.864C150.24 19.696 150.184 19.528 150.184 19.36C150.184 18.9307 150.352 18.604 150.688 18.38C151.043 18.156 151.463 18.044 151.948 18.044C152.956 18.044 153.656 18.6413 154.048 19.836C154.534 19.276 155.084 18.828 155.7 18.492C156.335 18.1373 156.942 17.96 157.52 17.96C158.211 17.96 158.836 18.1467 159.396 18.52C159.975 18.8933 160.264 19.3973 160.264 20.032C160.264 20.3867 160.106 20.7507 159.788 21.124C159.49 21.4973 159.182 21.684 158.864 21.684C158.696 21.684 158.547 21.6467 158.416 21.572C158.304 21.4787 158.164 21.348 157.996 21.18C157.81 20.9933 157.651 20.8627 157.52 20.788C157.39 20.6947 157.24 20.648 157.072 20.648C156.774 20.648 156.494 20.6947 156.232 20.788C155.971 20.8813 155.794 20.9933 155.7 21.124C155.402 21.5907 155.178 22.0107 155.028 22.384C154.898 22.7573 154.832 23.1587 154.832 23.588C154.832 23.9053 154.823 24.1573 154.804 24.344L154.776 25.94C154.776 26.1827 154.786 26.4533 154.804 26.752C154.823 27.0507 154.842 27.2747 154.86 27.424C154.916 27.928 154.944 28.4133 154.944 28.88ZM173.157 27.452C173.475 27.6947 173.689 27.928 173.801 28.152C173.913 28.376 173.969 28.656 173.969 28.992C173.969 29.272 173.82 29.5333 173.521 29.776C173.241 30 172.98 30.112 172.737 30.112C172.532 30.112 172.289 30.0467 172.009 29.916C171.729 29.7853 171.515 29.636 171.365 29.468C171.16 29.3 170.759 28.8893 170.161 28.236C169.583 27.5827 169.153 27.0693 168.873 26.696C168.201 25.856 167.865 25.436 167.865 25.436L166.885 24.232L165.093 25.688L165.205 28.74C165.205 29.244 165.075 29.5987 164.813 29.804C164.571 30.0093 164.328 30.112 164.085 30.112C163.731 30.112 163.413 30.0467 163.133 29.916C162.872 29.7853 162.713 29.636 162.657 29.468C162.452 28.7213 162.349 27.7413 162.349 26.528C162.349 24.2507 162.387 22.4307 162.461 21.068C162.536 19.3693 162.573 17.764 162.573 16.252C162.573 15.7853 162.517 15.1413 162.405 14.32C162.387 14.152 162.359 13.8813 162.321 13.508C162.284 13.1347 162.265 12.7987 162.265 12.5C162.265 12.0707 162.405 11.7347 162.685 11.492C162.984 11.2493 163.367 11.128 163.833 11.128C164.207 11.128 164.505 11.2493 164.729 11.492C164.972 11.716 165.093 12.0333 165.093 12.444C165.093 13.06 165.112 13.872 165.149 14.88C165.187 15.888 165.205 16.6253 165.205 17.092C165.205 17.6707 165.187 18.4453 165.149 19.416C165.112 19.9387 165.093 20.3307 165.093 20.592C165.093 21.4133 165.103 22.0947 165.121 22.636C165.793 21.9453 166.689 21.1427 167.809 20.228C168.948 19.2947 169.835 18.6413 170.469 18.268C171.179 17.8387 171.608 17.624 171.757 17.624C172.149 17.624 172.485 17.708 172.765 17.876C173.045 18.044 173.185 18.296 173.185 18.632C173.185 18.968 173.139 19.2293 173.045 19.416C172.952 19.584 172.784 19.7613 172.541 19.948L168.929 22.58C169.732 23.5693 170.563 24.5773 171.421 25.604C172.28 26.612 172.859 27.228 173.157 27.452Z" fill="#212121"/>
</svg>
